<?xml version="1.0" encoding="UTF-8"?>
<svg version="1.1" xmlns="http://www.w3.org/2000/svg" width="64" height="64">
<path d="M0 0 C4.02800772 2.71656334 6.33287779 5.22915974 7.41015625 10.0390625 C7.52230469 11.16054688 7.63445313 12.28203125 7.75 13.4375 C8.10705638 17.85883782 8.10705638 17.85883782 10.03515625 21.7109375 C11.82454995 23.12451886 11.82454995 23.12451886 15.0625 22.8125 C19.06759329 22.8125 20.59743178 23.34044543 23.6875 25.8125 C26.0282964 28.82209537 26.1027601 32.09004525 26.01171875 35.84375 C25.49345067 38.99082363 23.95974598 40.67009665 21.6875 42.8125 C18.95996429 43.72167857 17.29134287 43.95219771 14.47900391 43.98950195 C13.21221298 44.00875481 13.21221298 44.00875481 11.91983032 44.02839661 C11.01042694 44.03578354 10.10102356 44.04317047 9.1640625 44.05078125 C8.22573578 44.058853 7.28740906 44.06692474 6.32064819 44.07524109 C4.33520347 44.08906972 2.3497351 44.09979733 0.36425781 44.10766602 C-2.66907768 44.12489536 -5.70132774 44.16879418 -8.734375 44.21289062 C-10.66405449 44.22301647 -12.59374324 44.23153291 -14.5234375 44.23828125 C-15.42879242 44.25578934 -16.33414734 44.27329742 -17.26693726 44.29133606 C-21.4779999 44.2768564 -23.72439225 44.17386967 -27.38500977 41.92456055 C-29.58815763 39.51044628 -29.96884095 38.53621279 -29.875 35.3125 C-29.68605703 32.20770736 -29.41756353 30.97413619 -27.6875 28.3125 C-24.87654634 26.53716085 -22.60152165 26.11150197 -19.3125 25.8125 C-19.76302734 24.86890625 -19.76302734 24.86890625 -20.22265625 23.90625 C-22.87395037 17.93859138 -24.01121506 14.18268148 -22.3125 7.8125 C-17.65136392 -1.33713749 -9.25439204 -3.31761224 0 0 Z " fill="#26A2B8" transform="translate(34.3125,8.1875)"/>
<path d="M0 0 C3.9323173 2.65202795 6.18648186 5.30944559 7.6875 9.8125 C7.81531786 12.48644964 7.73141871 15.13345857 7.6875 17.8125 C6.5428125 17.3484375 6.5428125 17.3484375 5.375 16.875 C0.73411726 15.0402324 -3.32430432 14.13100078 -8.3125 14.8125 C-12.75948859 17.12151331 -15.27298085 19.9045468 -18.3125 23.8125 C-18.9725 23.8125 -19.6325 23.8125 -20.3125 23.8125 C-22.99110838 17.81241724 -23.86960281 14.24852494 -22.3125 7.8125 C-17.65136392 -1.33713749 -9.25439204 -3.31761224 0 0 Z " fill="#FABE02" transform="translate(34.3125,8.1875)"/>
<path d="M0 0 C5.77658072 0.25170286 9.89028705 0.52766532 14 5 C17.18452849 9.8316984 17.28951652 13.40268068 17 19 C15.8553125 18.5359375 15.8553125 18.5359375 14.6875 18.0625 C10.05030088 16.22918872 5.9849041 15.30949146 1 16 C-2.95224869 18.12813391 -5.95482907 20.72058515 -9 24 C-8.9158797 21.13990965 -8.43181261 19.45351173 -6.4453125 17.3671875 C-1.23966607 12.89594762 1.98545177 11.52773339 9 12 C9.99 12.33 10.98 12.66 12 13 C9.9692674 7.31428087 9.9692674 7.31428087 6 3 C2.89992799 1.79950593 2.89992799 1.79950593 0 1 C0 0.67 0 0.34 0 0 Z " fill="#F5A018" transform="translate(25,7)"/>
<path d="M0 0 C6.37534247 0.49041096 6.37534247 0.49041096 9.375 2.9375 C11.99885792 6.26778121 12.35492921 8.69103934 12.26953125 12.9609375 C11.81827209 16.37481116 10.62561128 17.83387069 8 20 C5.26556811 20.69926312 2.84653402 20.8576733 0 21 C0.433125 20.57589844 0.86625 20.15179688 1.3125 19.71484375 C4.2882639 16.58064797 5.86549278 14.70921986 6.6875 10.375 C5.83118507 6.17127214 4.21352972 4.74325708 1 2 C0.67 1.34 0.34 0.68 0 0 Z " fill="#178FA9" transform="translate(48,31)"/>
<path d="M0 0 C6.31763979 -0.45125998 10.75523738 0.29146076 16 4 C18.125 6.5 18.125 6.5 19 9 C18.05944429 12.10383385 15.9924942 14.46409829 14 17 C13.90203125 16.40832031 13.8040625 15.81664062 13.703125 15.20703125 C12.76125374 10.22972884 11.96877196 6.44656512 8 3 C5.32191254 2.02521721 2.82340949 1.51762507 0 1 C0 0.67 0 0.34 0 0 Z " fill="#1E8DA2" transform="translate(26,22)"/>
<path d="M0 0 C1.051875 -0.00386719 1.051875 -0.00386719 2.125 -0.0078125 C4 0.125 4 0.125 6 1.125 C6 2.115 6 3.105 6 4.125 C5.34773438 4.07859375 4.69546875 4.0321875 4.0234375 3.984375 C-1.93492275 3.73830702 -5.29524645 4.0923541 -10 8.125 C-11.36886951 9.42182374 -12.7169291 10.74323134 -14 12.125 C-13.9158797 9.26490965 -13.43181261 7.57851173 -11.4453125 5.4921875 C-5.02949863 -0.0184908 -5.02949863 -0.0184908 0 0 Z " fill="#F09D1D" transform="translate(30,18.875)"/>
<path d="M0 0 C2 1.625 2 1.625 4 4 C4.25 7.25 4.25 7.25 4 10 C2.02 10 0.04 10 -2 10 C-3.06351675 6.61608307 -3.21442982 5.4195366 -1.5625 2.1875 C-1.046875 1.465625 -0.53125 0.74375 0 0 Z " fill="#24A6BA" transform="translate(21,54)"/>
<path d="M0 0 C0.66 0 1.32 0 2 0 C4.09350689 3.4019487 4.17942163 6.05272412 4 10 C2.02 10 0.04 10 -2 10 C-2.6875 8.375 -2.6875 8.375 -3 6 C-1.5625 2.75 -1.5625 2.75 0 0 Z " fill="#23A4B9" transform="translate(40,54)"/>
<path d="M0 0 C2 1.625 2 1.625 4 4 C4.25 7.25 4.25 7.25 4 10 C3.01 9.67 2.02 9.34 1 9 C0.67 6.03 0.34 3.06 0 0 Z " fill="#1890A9" transform="translate(21,54)"/>
<path d="M0 0 C0.66 0 1.32 0 2 0 C3.85776765 3.13498292 4.20140476 5.37471432 4 9 C3.34 9 2.68 9 2 9 C1.34 6.03 0.68 3.06 0 0 Z " fill="#178DA6" transform="translate(40,54)"/>
<path d="M0 0 C0.99 0.33 1.98 0.66 3 1 C2.1875 2.9375 2.1875 2.9375 1 5 C0.01 5.33 -0.98 5.66 -2 6 C-2 2 -2 2 0 0 Z " fill="#FAC101" transform="translate(41,5)"/>
<path d="M0 0 C-0.33 1.32 -0.66 2.64 -1 4 C-2.65 4 -4.3 4 -6 4 C-6 3.01 -6 2.02 -6 1 C-3.92446352 0.4465236 -2.15634036 0 0 0 Z " fill="#FAC401" transform="translate(10,25)"/>
<path d="M0 0 C0 0.99 0 1.98 0 3 C-1.98 3.33 -3.96 3.66 -6 4 C-6 3.01 -6 2.02 -6 1 C-4 0 -4 0 0 0 Z " fill="#FBBD01" transform="translate(49,15)"/>
<path d="M0 0 C2.97 0.495 2.97 0.495 6 1 C6 1.99 6 2.98 6 4 C3.03 3.505 3.03 3.505 0 3 C0 2.01 0 1.02 0 0 Z " fill="#FABB01" transform="translate(4,15)"/>
<path d="M0 0 C2.97 0.495 2.97 0.495 6 1 C6 1.99 6 2.98 6 4 C3.03 3.505 3.03 3.505 0 3 C0 2.01 0 1.02 0 0 Z " fill="#FABE01" transform="translate(43,25)"/>
<path d="M0 0 C1.9375 0.75 1.9375 0.75 4 2 C4.75 4.125 4.75 4.125 5 6 C3.0625 5.25 3.0625 5.25 1 4 C0.25 1.875 0.25 1.875 0 0 Z " fill="#FAC101" transform="translate(10,5)"/>
<path d="M0 0 C0.99 0 1.98 0 3 0 C2.67 1.98 2.34 3.96 2 6 C1.01 6 0.02 6 -1 6 C-0.67 4.02 -0.34 2.04 0 0 Z " fill="#FABD01" transform="translate(31,0)"/>
<path d="M0 0 C0.66 0.66 1.32 1.32 2 2 C0.35 3.98 -1.3 5.96 -3 8 C-3.33 7.01 -3.66 6.02 -4 5 C-2.0625 2.3125 -2.0625 2.3125 0 0 Z " fill="#E29D29" transform="translate(20,23)"/>
<path d="M0 0 C0.99 0.33 1.98 0.66 3 1 C3 2.65 3 4.3 3 6 C2.01 5.67 1.02 5.34 0 5 C0 3.35 0 1.7 0 0 Z " fill="#FABD01" transform="translate(20,0)"/>
</svg>
